<?xml version="1.0" standalone="no"?>
<!DOCTYPE svg PUBLIC "-//W3C//DTD SVG 20010904//EN"
 "http://www.w3.org/TR/2001/REC-SVG-20010904/DTD/svg10.dtd">
<svg version="1.0" xmlns="http://www.w3.org/2000/svg"
 width="600.000000pt" height="317.000000pt" viewBox="0 0 600.000000 317.000000"
 preserveAspectRatio="xMidYMid meet">
<metadata>
Created by potrace 1.16, written by Peter Selinger 2001-2019
</metadata>
<g transform="translate(0.000000,317.000000) scale(0.100000,-0.100000)"
fill="#000000" stroke="none">
<path d="M2452 2798 c-36 -176 -79 -253 -226 -407 -170 -176 -380 -272 -631
-287 -175 -11 -293 38 -376 155 -36 52 -59 74 -59 57 0 -34 -90 -338 -121
-408 -113 -259 -399 -679 -641 -945 -51 -56 -112 -116 -136 -134 -40 -29 -42
-33 -42 -82 0 -57 31 -131 61 -148 18 -9 19 -25 19 -304 l0 -295 2695 0 2695
0 0 291 0 290 29 37 c29 37 51 96 51 140 0 16 -28 54 -86 115 -276 292 -608
761 -732 1032 -30 68 -122 374 -122 410 0 16 -21 -1 -50 -42 -48 -66 -86 -98
-160 -136 -63 -31 -68 -32 -190 -31 -270 2 -484 95 -675 295 -128 134 -185
232 -227 390 l-23 86 -68 -62 c-127 -116 -214 -145 -442 -145 -160 0 -236 13
-310 50 -61 31 -154 111 -191 163 l-19 28 -23 -113z m183 -858 c6 -1 0 -5 -12
-10 -20 -8 -23 -17 -23 -68 0 -32 5 -63 11 -69 8 -8 8 -13 0 -17 -6 -4 -11
-37 -11 -77 0 -63 2 -71 23 -79 25 -10 18 -12 -63 -14 -67 -2 -78 2 -51 21 17
11 21 25 21 72 0 31 -5 62 -11 68 -8 8 -8 17 0 31 19 36 14 109 -9 125 -11 8
-18 16 -16 18 4 4 109 3 141 -1z m186 1 c56 6 113 0 138 -15 6 -4 19 -24 29
-44 20 -41 12 -72 -28 -104 l-20 -17 25 -25 c17 -17 25 -36 25 -60 0 -25 6
-39 22 -50 12 -9 20 -17 18 -17 -3 -1 -27 -2 -53 -4 -43 -2 -49 0 -58 22 -5
13 -9 38 -9 54 0 47 -16 69 -50 69 -30 0 -30 0 -30 -60 0 -45 4 -62 15 -66 30
-12 5 -20 -57 -18 -77 2 -77 2 -56 15 15 8 17 28 17 155 0 117 -3 146 -14 151
-8 3 -12 9 -9 14 3 5 12 6 20 1 8 -5 42 -5 75 -1z m437 -2 c29 -10 51 -34 65
-71 4 -12 -2 -21 -23 -32 -26 -12 -30 -12 -30 0 0 8 -5 14 -12 14 -6 0 -3 9 8
21 19 21 18 21 -5 40 -48 39 -90 16 -98 -54 -3 -27 -1 -52 5 -60 7 -8 7 -18 2
-27 -13 -20 -12 -87 0 -110 17 -31 45 -42 77 -29 33 12 43 26 43 57 0 15 5 22
13 20 42 -15 -14 -95 -73 -104 -46 -8 -103 16 -126 51 -9 15 -23 49 -30 76
-22 85 21 178 96 208 33 13 51 13 88 0z m272 2 c2 -1 -6 -8 -18 -17 -18 -12
-22 -25 -22 -69 0 -30 5 -57 10 -60 7 -4 6 -13 -1 -27 -15 -27 -6 -106 14
-126 22 -21 72 -19 97 3 15 14 20 31 20 71 0 29 -5 56 -10 59 -8 5 -8 11 0 20
6 7 10 39 8 71 -3 52 -6 59 -28 65 -32 9 -26 11 35 14 57 2 82 -6 45 -15 -23
-5 -25 -11 -28 -64 -2 -32 2 -64 8 -71 8 -10 8 -15 0 -20 -7 -4 -10 -29 -9
-61 2 -40 -2 -58 -15 -73 -43 -48 -142 -50 -190 -6 -22 20 -26 33 -26 79 0 30
-5 58 -11 62 -8 4 -8 9 0 17 6 6 11 37 11 68 0 49 -3 59 -20 64 -39 12 -10 22
57 19 37 -1 70 -3 73 -3z m484 -58 c-2 -25 -5 -52 -8 -60 -9 -22 -26 -14 -26
12 0 35 -42 75 -78 75 -70 0 -84 -66 -23 -107 19 -13 41 -21 48 -19 7 3 13 0
13 -7 0 -7 16 -29 36 -48 80 -75 78 -160 -4 -211 -33 -20 -47 -22 -164 -16
-13 1 -30 -2 -38 -5 -11 -5 -18 2 -26 27 -6 20 -7 41 -3 48 5 7 9 27 9 44 0
17 7 37 15 44 16 14 18 10 15 -38 -1 -25 6 -40 33 -67 40 -40 72 -44 111 -14
37 29 35 68 -6 108 -18 18 -44 34 -58 38 -33 8 -47 20 -82 67 -80 111 18 217
162 176 27 -8 38 -7 49 5 20 20 28 4 25 -52z m-1660 36 c26 -21 34 -34 50 -86
6 -18 3 -23 -11 -23 -11 0 -24 -5 -31 -12 -9 -9 -15 -8 -24 4 -7 9 -20 18 -28
21 -12 4 -12 6 2 6 10 1 22 10 28 21 9 17 6 25 -14 45 -14 14 -35 25 -46 25
-24 0 -61 -18 -72 -34 -12 -18 -9 -131 4 -144 9 -9 9 -15 0 -24 -7 -7 -12 -40
-12 -80 0 -55 4 -72 20 -88 20 -20 71 -27 105 -14 22 9 47 61 40 84 -8 24 7
26 25 5 19 -22 -10 -79 -52 -105 -40 -24 -116 -27 -157 -5 -42 21 -79 70 -91
118 -5 23 -14 55 -19 70 -6 17 -6 36 -1 45 4 10 13 36 19 58 23 88 84 134 177
134 47 0 67 -5 88 -21z m326 -421 c0 -9 -3 -24 -6 -33 -6 -14 -8 -13 -18 7
-14 28 -53 36 -62 13 -6 -15 24 -60 34 -50 8 8 62 -67 62 -86 0 -23 -34 -59
-57 -60 -99 -6 -107 -2 -96 55 7 32 23 34 23 3 0 -43 53 -65 80 -32 17 21 8
39 -41 71 -53 36 -64 54 -55 88 8 32 36 45 93 43 33 -2 43 -6 43 -19z m160 8
c-5 -5 -10 -29 -10 -53 l0 -43 40 0 40 0 0 43 c0 24 -5 48 -10 53 -7 7 4 11
35 11 34 1 43 -2 36 -11 -15 -18 -13 -199 2 -208 7 -4 -10 -8 -38 -8 -31 0
-45 4 -37 9 9 5 12 23 10 51 -3 43 -4 44 -38 44 -34 0 -35 -1 -38 -44 -2 -28
1 -46 10 -51 8 -5 -6 -9 -37 -9 -27 0 -45 4 -38 8 15 9 17 190 3 207 -6 8 5
11 36 11 31 1 42 -2 34 -10z m350 -1 c38 -20 54 -76 41 -137 -12 -53 -41 -78
-90 -78 -50 0 -76 21 -89 73 -28 108 50 188 138 142z m170 3 c0 -4 -4 -8 -9
-8 -8 0 28 -113 41 -125 3 -3 13 15 22 41 14 42 14 50 1 70 -8 13 -15 25 -15
27 0 3 77 1 90 -2 3 -1 0 -5 -7 -9 -9 -6 -8 -21 4 -65 9 -31 19 -57 22 -57 11
0 40 114 31 125 -5 6 2 10 21 10 16 0 29 -3 29 -7 0 -5 -4 -8 -9 -8 -8 0 -29
-42 -35 -71 -2 -8 -10 -30 -19 -50 -9 -19 -19 -47 -22 -62 -4 -15 -10 -27 -14
-27 -3 0 -15 28 -25 63 -11 34 -23 66 -26 70 -4 5 -17 -20 -30 -55 -13 -35
-26 -66 -30 -71 -7 -8 -61 105 -64 134 -2 9 -12 32 -23 51 l-20 34 44 0 c23 0
43 -4 43 -8z m-188 -1058 c47 -85 115 -209 152 -274 36 -66 66 -121 66 -123 0
-2 -55 -2 -122 -1 l-123 3 -33 160 c-18 88 -41 206 -51 262 -18 103 -18 103 3
117 12 8 22 13 22 12 1 0 40 -71 86 -156z m-207 96 c-2 -12 -23 -120 -45 -241
-23 -121 -43 -228 -46 -237 -5 -16 -20 -18 -125 -18 -65 0 -119 3 -119 7 0 6
81 154 237 435 52 94 55 97 78 86 18 -8 23 -17 20 -32z"/>
</g>
</svg>
